# xmcd CD database file
#
# Track frame offsets:
#	150
#	14459
#	27124
#	39028
#	45896
#	57936
#	70941
#	85114
#	100456
#	114575
#	126107
#	136661
#	150127
#	161017
#	175544
#	186491
#	200971
#	215564
#	224819
#	237953
#
# Disc length: 3370 seconds
#
# Revision: 0
# Processed by: cddbd v1.5.2PL0 Copyright (c) Steve Scherf et al.
# Submitted via: CDex 1.51
#
DISCID=110d2814
DTITLE=Various Artist - Jazz Divas cd 1
DYEAR=2003
DGENRE=Jazz
TTITLE0=Peggy Lee - Don't Smoke In Bed
TTITLE1=Sarah Vaughan - What A Difference A Day Makes
TTITLE2=Ella Fitzgerald - A-Tisket, A-Tasket
TTITLE3=Billie Holiday - I'll Get By
TTITLE4=Anita O'Day - Alreet
TTITLE5=Maxine Sullivan - Nice Work If You Can Get It
TTITLE6=Dinah Shore - Mood Indigo
TTITLE7=Lena Horne - Stormy Weather
TTITLE8=Peggy Lee - How Deep Is The Ocean
TTITLE9=Sarah Vaughan - Interlude (A Night In Tunisia)
TTITLE10=Anita O'Day - You Took Advantage Of Me
TTITLE11=Billie Holiday - God Bless The Child
TTITLE12=Anita O'Day - Ain't Misbehavin'
TTITLE13=Peggy Lee - On The Sunny Side Of The Street
TTITLE14=Maxine Sullivan - My Ideal
TTITLE15=Dinah Shore - Blues In The Night
TTITLE16=Lena Horn - You're My Thrill
TTITLE17=Peggy Lee - Let's Do It (Let's Fall In Love)
TTITLE18=Anita O'Day - How High The Moon
TTITLE19=Sarah Vaughan -  Summertime
EXTD=YEAR: 2003
EXTT0=
EXTT1=
EXTT2=
EXTT3=
EXTT4=
EXTT5=
EXTT6=
EXTT7=
EXTT8=
EXTT9=
EXTT10=
EXTT11=
EXTT12=
EXTT13=
EXTT14=
EXTT15=
EXTT16=
EXTT17=
EXTT18=
EXTT19=
PLAYORDER=
